<?xml version="1.0" encoding="UTF-8"?>
<svg xmlns="http://www.w3.org/2000/svg" xmlns:xlink="http://www.w3.org/1999/xlink" viewBox="0 0 100 100" width="100px" height="100px">
<g id="surface42522680">
<path style=" stroke:none;fill-rule:nonzero;fill:rgb(100%,100%,100%);fill-opacity:1;" d="M 18 14 L 24 82 L 52 90 L 80 82 C 82 59.335938 84 36.664062 86 14 Z M 22.367188 18 L 81.632812 18 L 76.257812 78.910156 L 52 85.839844 L 27.742188 78.910156 Z M 37.101562 30 L 35.179688 54 L 61.160156 54 L 60.339844 64 L 52 65.238281 L 43.761719 64 L 43.398438 60 L 35.679688 60 L 36.460938 70 L 51.980469 74 L 67.519531 70 L 69.5 46 L 44.179688 46 L 44.820312 38 L 61.539062 38 L 62 42 L 69.398438 42 L 68 30 Z M 37.101562 30 "/>
</g>
</svg>
