<?xml version="1.0" encoding="UTF-8"?>
<svg xmlns="http://www.w3.org/2000/svg" xmlns:xlink="http://www.w3.org/1999/xlink" viewBox="0 0 128 128" width="128px" height="128px">
<defs>
<linearGradient id="linear0" gradientUnits="userSpaceOnUse" x1="34.5" y1="7.596" x2="34.5" y2="18.830999" gradientTransform="matrix(2,0,0,2,0,0)">
<stop offset="0" style="stop-color:rgb(100%,100%,100%);stop-opacity:1;"/>
<stop offset="1" style="stop-color:rgb(90.196079%,67.058825%,100%);stop-opacity:1;"/>
</linearGradient>
<linearGradient id="linear1" gradientUnits="userSpaceOnUse" x1="33.639" y1="-0.489" x2="33.639" y2="64.588997" gradientTransform="matrix(2,0,0,2,0,0)">
<stop offset="0" style="stop-color:rgb(10.196079%,42.745098%,100%);stop-opacity:1;"/>
<stop offset="1" style="stop-color:rgb(78.431374%,13.333334%,100%);stop-opacity:1;"/>
</linearGradient>
</defs>
<g id="surface42726294">
<path style=" stroke:none;fill-rule:nonzero;fill:url(#linear0);" d="M 82 27 C 82 34.179688 76.179688 40 69 40 C 61.820312 40 56 34.179688 56 27 C 56 19.820312 61.820312 14 69 14 C 76.179688 14 82 19.820312 82 27 Z M 82 27 "/>
<path style=" stroke:none;fill-rule:nonzero;fill:url(#linear1);" d="M 92.601562 76 C 92.398438 74.199219 91.398438 72.601562 89.800781 71.601562 L 77.601562 62.800781 L 75 56.199219 C 73.398438 52 72.601562 50 72 48.800781 C 72 48.800781 71 47 70 46 L 64.398438 41.199219 C 65.800781 41.601562 67.398438 41.800781 68.800781 41.800781 C 77 41.800781 83.800781 35 83.800781 26.800781 C 83.800781 18.601562 77.199219 12 69 12 C 60.800781 12 54 18.800781 54 27 C 54 29.398438 54.601562 31.601562 55.601562 33.601562 L 46 25.199219 L 46 0 L 42 0 L 42 128 L 46 128 L 46 119.199219 C 46 119.199219 46 119.199219 46.199219 119.199219 L 62.398438 104 C 62.601562 103.800781 63.199219 103 63.398438 102.800781 C 65 100.398438 65 97.199219 63.398438 95 L 49 75.800781 L 62.398438 60.398438 L 65.800781 69.398438 C 66.199219 70.199219 66.601562 71 67.199219 71.601562 C 67.601562 72 68 72.398438 68.398438 72.800781 L 82 82.601562 C 85 84.800781 89.199219 84.199219 91.398438 81.199219 C 92.398438 79.601562 92.800781 77.800781 92.601562 76 Z M 69 16 C 75 16 80 21 80 27 C 80 33 75 38 69 38 C 63 38 58 33 58 27 C 58 21 63 16 69 16 Z M 60 97.199219 C 60.601562 98.199219 60.800781 99.398438 60 100.398438 C 60 100.601562 59.601562 100.800781 59.601562 101 L 46 113.800781 L 46 78.601562 Z M 88 78.800781 C 87.199219 80 85.398438 80.199219 84.199219 79.398438 L 70.601562 69.601562 C 70.398438 69.398438 70.199219 69.398438 70.199219 69.199219 C 70.199219 69.199219 70.199219 69 70 69 C 69.800781 68.800781 69.601562 68.398438 69.398438 68 L 64.800781 56 C 64.601562 55.398438 64 54.800781 63.199219 54.800781 C 62.601562 54.601562 61.800781 55 61.398438 55.398438 L 46 72.800781 L 46 30.601562 L 66.800781 48.601562 L 67.199219 49 C 67.800781 49.601562 68.398438 50.199219 68.800781 50.800781 C 69.398438 52.398438 74.199219 65 74.199219 65 C 74.398438 65.398438 74.601562 65.601562 74.800781 66 L 87.601562 75.199219 C 88.199219 75.601562 88.601562 76.199219 88.601562 77 C 88.601562 77.398438 88.398438 78.199219 88 78.800781 Z M 88 78.800781 "/>
</g>
</svg>
