<svg id="visual" viewBox="0 0 960 540" width="960" height="540" xmlns="http://www.w3.org/2000/svg" xmlns:xlink="http://www.w3.org/1999/xlink" version="1.1"><path d="M0 112L20 105.5C40 99 80 86 120 76.2C160 66.3 200 59.7 240 66.7C280 73.7 320 94.3 360 92.8C400 91.3 440 67.7 480 60.8C520 54 560 64 600 65.3C640 66.7 680 59.3 720 63.7C760 68 800 84 840 88.7C880 93.3 920 86.7 940 83.3L960 80L960 0L940 0C920 0 880 0 840 0C800 0 760 0 720 0C680 0 640 0 600 0C560 0 520 0 480 0C440 0 400 0 360 0C320 0 280 0 240 0C200 0 160 0 120 0C80 0 40 0 20 0L0 0Z" fill="#0066FF" stroke-linecap="round" stroke-linejoin="miter"></path></svg>